HIERARCHY
ROOT Pelvis
{
	OFFSET 0.000000 0.941512 0.000000
	CHANNELS 6 Xposition Yposition Zposition Zrotation Yrotation Xrotation 
	JOINT Pelvis_L_Hip
	{
		OFFSET 0.000000 0.000000 0.000000
		CHANNELS 3 Zrotation Yrotation Xrotation
		JOINT L_Hip
		{
			OFFSET 0.062321 -0.080322 -0.016990
			CHANNELS 3 Zrotation Yrotation Xrotation
			JOINT L_Knee
			{
				OFFSET 0.093051 -0.381305 -0.029784
				CHANNELS 3 Zrotation Yrotation Xrotation
				JOINT L_Ankle
				{
					OFFSET -0.010371 -0.431000 -0.033614
					CHANNELS 3 Zrotation Yrotation Xrotation
					End Site #name: L_Foot
					{
						OFFSET 0.069299 -0.038670 0.119418
					}
				}
			}
		}
	}
	JOINT Pelvis_R_Hip
	{
		OFFSET 0.000000 0.000000 0.000000
		CHANNELS 3 Zrotation Yrotation Xrotation
		JOINT R_Hip
		{
			OFFSET -0.055334 -0.094904 -0.002373
			CHANNELS 3 Zrotation Yrotation Xrotation
			JOINT R_Knee
			{
				OFFSET -0.064207 -0.384370 -0.019592
				CHANNELS 3 Zrotation Yrotation Xrotation
				JOINT R_Ankle
				{
					OFFSET 0.025418 -0.419734 -0.065953
					CHANNELS 3 Zrotation Yrotation Xrotation
					End Site #name: R_Foot
					{
						OFFSET -0.057233 -0.039888 0.132134
					}
				}
			}
		}
	}
	JOINT Pelvis_Spine1
	{
		OFFSET 0.000000 0.000000 0.000000
		CHANNELS 3 Zrotation Yrotation Xrotation
		JOINT Spine1
		{
			OFFSET -0.005562 0.124093 -0.043360
			CHANNELS 3 Zrotation Yrotation Xrotation
			JOINT Spine2
			{
				OFFSET 0.012244 0.139499 0.029894
				CHANNELS 3 Zrotation Yrotation Xrotation
				JOINT Spine3
				{
					OFFSET -0.002556 0.056561 0.009225
					CHANNELS 3 Zrotation Yrotation Xrotation
					JOINT Spine3_Neck
					{
						OFFSET 0.000000 0.000000 0.000000
						CHANNELS 3 Zrotation Yrotation Xrotation
						JOINT Neck
						{
							OFFSET -0.005205 0.217920 -0.024551
							CHANNELS 3 Zrotation Yrotation Xrotation
							End Site #name: Head
							{
								OFFSET 0.002365 0.091850 0.046637
							}
						}
					}
					JOINT Spine3_L_Collar
					{
						OFFSET 0.000000 0.000000 0.000000
						CHANNELS 3 Zrotation Yrotation Xrotation
						JOINT L_Collar
						{
							OFFSET 0.072225 0.116603 -0.009480
							CHANNELS 3 Zrotation Yrotation Xrotation
							JOINT L_Shoulder
							{
								OFFSET 0.115937 -0.058643 -0.021018
								CHANNELS 3 Zrotation Yrotation Xrotation
								JOINT L_Elbow
								{
									OFFSET 0.021994 -0.254722 -0.024492
									CHANNELS 3 Zrotation Yrotation Xrotation
									End Site #name: L_Wrist
									{
										OFFSET 0.048810 -0.240214 0.103329
									}
								}
							}
						}
					}
					JOINT Spine3_R_Collar
					{
						OFFSET 0.000000 0.000000 0.000000
						CHANNELS 3 Zrotation Yrotation Xrotation
						JOINT R_Collar
						{
							OFFSET -0.073372 0.120704 -0.024611
							CHANNELS 3 Zrotation Yrotation Xrotation
							JOINT R_Shoulder
							{
								OFFSET -0.108089 -0.054969 -0.020504
								CHANNELS 3 Zrotation Yrotation Xrotation
								JOINT R_Elbow
								{
									OFFSET -0.033684 -0.260739 0.009889
									CHANNELS 3 Zrotation Yrotation Xrotation
									End Site #name: R_Wrist
									{
										OFFSET -0.067980 -0.232763 0.118463
									}
								}
							}
						}
					}
				}
			}
		}
	}
}
MOTION
Frames: 15
Frame Time: 0.041667
0.000000 0.922549 0.000000 -1.405953 -10.584368 -0.501602 0.000000 0.000000 0.000000 -0.800518 -4.597701 -19.412597 12.504249 -3.085374 17.132381 -14.245119 -39.120237 4.040903 0.000000 0.000000 0.000000 -2.830385 -1.483718 13.318014 -1.185854 -0.055528 -3.167979 -13.703551 -38.802174 12.283774 0.000000 0.000000 0.000000 4.402862 0.650030 -13.021794 -5.672147 7.628747 45.024792 5.677050 6.829988 -35.173568 0.000000 0.000000 0.000000 14.142322 -13.256779 34.034565 0.000000 0.000000 0.000000 25.321380 -9.495509 -2.899078 -17.868807 4.518972 15.090788 -10.001395 -10.333952 -16.925391 0.000000 0.000000 0.000000 -38.619790 24.374067 -15.658496 -10.400482 -0.221512 -10.153663 -13.907838 -8.471422 13.588149 
0.000624 0.922267 -0.000184 -1.507757 -10.683872 -0.709072 0.000000 0.000000 0.000000 -0.746731 -4.515492 -19.074339 12.534412 -3.064099 16.893340 -14.338976 -39.101659 4.166518 0.000000 0.000000 0.000000 -2.784422 -1.488354 13.295600 -1.154589 -0.034661 -2.813677 -13.718433 -38.796460 12.114144 0.000000 0.000000 0.000000 4.701962 0.538903 -12.393307 -5.729825 7.685220 45.058692 5.467664 6.728607 -35.427361 0.000000 0.000000 0.000000 14.168552 -13.271037 34.071078 0.000000 0.000000 0.000000 25.134052 -9.411189 -2.859556 -18.952829 4.854174 15.658657 -9.271221 -9.721126 -16.615803 0.000000 0.000000 0.000000 -38.771224 24.661427 -15.960348 -9.585571 -0.021095 -11.211076 -13.822310 -8.553217 14.469546 
0.000685 0.922045 -0.000546 -1.773905 -11.328982 -0.875869 0.000000 0.000000 0.000000 -0.458438 -4.382147 -18.664605 12.645747 -3.082015 16.965031 -13.764435 -38.868847 3.502086 0.000000 0.000000 0.000000 -2.681001 -1.494542 13.319204 -1.191518 -0.029237 -2.787230 -13.414566 -38.258235 11.705159 0.000000 0.000000 0.000000 4.934943 0.415918 -11.662053 -5.108661 7.384447 45.025950 4.889614 6.005707 -35.741118 0.000000 0.000000 0.000000 14.173112 -13.079431 34.021874 0.000000 0.000000 0.000000 25.076200 -9.757752 -3.272746 -19.542292 5.077842 16.111773 -8.465253 -9.225123 -16.717736 0.000000 0.000000 0.000000 -38.236856 24.435585 -15.499742 -8.505495 0.218727 -11.941653 -14.170895 -8.350920 11.841049 
0.000723 0.922343 -0.001178 -2.105370 -12.417655 -0.816850 0.000000 0.000000 0.000000 -0.016591 -4.244756 -18.341852 12.700327 -3.078456 17.065414 -13.029152 -38.201048 2.772058 0.000000 0.000000 0.000000 -2.571471 -1.476125 13.229047 -1.341856 -0.041560 -3.193754 -12.844958 -37.289175 11.303781 0.000000 0.000000 0.000000 4.961513 0.384627 -11.488430 -3.956976 6.854815 45.144036 4.176340 4.904553 -35.864210 0.000000 0.000000 0.000000 14.056837 -12.725307 34.204354 0.000000 0.000000 0.000000 25.181060 -10.560078 -4.123359 -18.999600 5.008938 16.232109 -8.620047 -9.172517 -16.272281 0.000000 0.000000 0.000000 -37.138677 24.013364 -14.711637 -7.828556 0.378263 -12.403141 -14.345685 -7.998077 8.479319 
0.000988 0.922830 -0.001910 -2.532977 -14.047292 -0.596152 0.000000 0.000000 0.000000 0.648744 -4.051833 -17.898980 12.606822 -3.015917 17.055367 -12.070797 -37.061815 1.896983 0.000000 0.000000 0.000000 -2.528020 -1.411981 12.964381 -1.490959 -0.071220 -3.818806 -12.005072 -35.828889 10.788326 0.000000 0.000000 0.000000 5.162937 0.346308 -11.428128 -2.596225 6.283748 45.246403 3.149122 3.472384 -36.037582 0.000000 0.000000 0.000000 14.050089 -12.398003 34.558711 0.000000 0.000000 0.000000 25.354882 -11.547895 -5.192120 -17.897279 4.852646 16.434875 -8.862804 -9.305762 -16.162521 0.000000 0.000000 0.000000 -36.108610 23.342415 -13.605078 -6.681827 0.596255 -12.494436 -14.886990 -7.637514 3.986101 
0.001567 0.923289 -0.002465 -3.092258 -16.047857 -0.064245 0.000000 0.000000 0.000000 1.456585 -3.875580 -17.629978 12.546094 -2.964022 17.194062 -10.950948 -35.586284 0.898347 0.000000 0.000000 0.000000 -2.491579 -1.303342 12.372734 -1.614749 -0.111744 -4.546622 -10.968708 -33.987688 10.267098 0.000000 0.000000 0.000000 5.501321 0.306747 -11.494693 -1.069701 5.569853 44.803497 1.914924 1.759399 -35.865891 0.000000 0.000000 0.000000 14.045564 -11.999639 35.068494 0.000000 0.000000 0.000000 25.524978 -12.356334 -6.183462 -16.927973 4.713134 16.564696 -8.858326 -9.273238 -16.052052 0.000000 0.000000 0.000000 -34.621856 21.868497 -11.650351 -4.738168 0.874304 -11.767673 -16.418566 -7.286475 -4.139757 
0.001895 0.923471 -0.002833 -3.792669 -18.427741 0.716085 0.000000 0.000000 0.000000 2.342899 -3.705091 -17.477290 12.686156 -2.962941 17.574333 -9.603968 -33.911172 -0.386154 0.000000 0.000000 0.000000 -2.431058 -1.151317 11.360139 -1.724794 -0.136887 -5.030882 -9.816163 -31.905144 9.814086 0.000000 0.000000 0.000000 5.782607 0.270849 -11.567694 0.734326 4.636063 43.689027 0.667883 -0.174355 -35.043293 0.000000 0.000000 0.000000 13.958576 -11.399436 35.628199 0.000000 0.000000 0.000000 25.730577 -13.039273 -7.161072 -16.386977 4.737789 16.964232 -8.837266 -9.252738 -16.039902 0.000000 0.000000 0.000000 -32.936284 19.586710 -8.920065 -1.947123 1.129032 -9.922451 -18.420596 -6.790171 -16.853627 
0.001313 0.923580 -0.003010 -4.542494 -21.206197 1.507453 0.000000 0.000000 0.000000 3.270756 -3.447097 -16.900659 12.877200 -2.934536 17.726651 -8.202314 -31.970527 -1.722194 0.000000 0.000000 0.000000 -2.482020 -0.963968 10.179027 -1.683055 -0.158975 -5.261202 -8.577116 -29.549774 9.258015 0.000000 0.000000 0.000000 5.858483 0.232835 -11.487984 2.869622 3.574381 42.412294 -0.685412 -2.420625 -34.127341 0.000000 0.000000 0.000000 14.013758 -10.750174 36.132671 0.000000 0.000000 0.000000 26.045616 -13.928959 -8.411120 -16.198256 4.952428 17.874954 -8.674341 -9.131454 -16.021453 0.000000 0.000000 0.000000 -31.259302 16.774577 -5.732890 1.523979 1.213082 -6.881991 -20.134051 -6.070105 -32.096894 
-0.000977 0.923848 -0.003405 -5.323640 -24.184027 2.421852 0.000000 0.000000 0.000000 4.350325 -3.113860 -15.938445 12.807477 -2.797460 17.305495 -7.041337 -29.770948 -2.683174 0.000000 0.000000 0.000000 -2.477605 -0.796130 9.033020 -1.734288 -0.187604 -5.756223 -7.208623 -27.054896 9.012036 0.000000 0.000000 0.000000 5.606698 0.241237 -11.509729 5.285997 2.400331 40.860520 -2.066479 -4.971696 -32.974543 0.000000 0.000000 0.000000 14.309453 -10.157237 36.717736 0.000000 0.000000 0.000000 26.644892 -15.123344 -10.046628 -16.073188 5.238344 19.023566 -8.796944 -9.043650 -15.595167 0.000000 0.000000 0.000000 -29.491163 13.474166 -2.198293 4.631750 0.919199 -2.950043 -20.712826 -4.624424 -46.146611 
-0.003704 0.924137 -0.003263 -6.083352 -27.138951 3.364101 0.000000 0.000000 0.000000 5.469923 -2.698076 -14.343618 12.439547 -2.545598 15.876989 -6.236064 -27.409777 -3.082841 0.000000 0.000000 0.000000 -2.338399 -0.672662 8.025065 -2.055149 -0.203691 -6.452879 -5.860681 -24.610729 8.855927 0.000000 0.000000 0.000000 5.484237 0.249381 -11.616741 7.928667 1.218359 39.428186 -3.872971 -7.988433 -31.968900 0.000000 0.000000 0.000000 14.970919 -9.785622 37.552353 0.000000 0.000000 0.000000 27.025753 -16.456310 -11.879838 -15.449395 5.472748 20.472868 -9.570098 -9.298422 -14.968799 0.000000 0.000000 0.000000 -28.210646 9.574134 1.872659 7.250990 0.224760 1.781003 -19.703036 -1.214102 -58.000863 
-0.007149 0.923882 -0.002331 -6.902908 -29.911850 4.340360 0.000000 0.000000 0.000000 6.626959 -2.278899 -12.590704 12.029431 -2.310189 14.312584 -5.556281 -25.221225 -3.365285 0.000000 0.000000 0.000000 -2.014654 -0.609212 7.253759 -2.592140 -0.211653 -7.302170 -4.560298 -22.320843 8.827232 0.000000 0.000000 0.000000 5.653314 0.229598 -11.717385 10.780862 0.023117 37.914645 -6.175872 -11.396540 -30.923776 0.000000 0.000000 0.000000 16.049047 -9.672740 38.323727 0.000000 0.000000 0.000000 27.443523 -17.880727 -13.871109 -14.746543 5.722230 22.168910 -10.678604 -9.778908 -14.405504 0.000000 0.000000 0.000000 -27.742875 5.146123 6.628349 8.978216 -0.705593 6.496455 -17.602468 4.254069 -66.752306 
-0.010532 0.923328 -0.001723 -7.758154 -32.374127 5.203697 0.000000 0.000000 0.000000 7.504847 -1.953856 -11.216262 12.054392 -2.224216 13.606062 -4.837295 -23.316354 -3.846601 0.000000 0.000000 0.000000 -1.645651 -0.576053 6.644835 -3.036706 -0.216606 -7.989308 -3.450011 -20.352417 8.788138 0.000000 0.000000 0.000000 6.136649 0.194513 -11.868240 13.490830 -1.032633 36.109259 -8.809632 -14.953677 -29.187825 0.000000 0.000000 0.000000 17.502569 -9.785437 38.991897 0.000000 0.000000 0.000000 28.175537 -19.574792 -16.260301 -14.215645 5.996789 23.823304 -11.751347 -10.269167 -13.964392 0.000000 0.000000 0.000000 -28.108286 1.030797 11.538890 10.358155 -1.608308 10.362685 -14.756636 10.783959 -71.456177 
-0.014159 0.922656 -0.002096 -8.767404 -34.667032 5.966184 0.000000 0.000000 0.000000 8.405159 -1.644161 -9.951567 12.218525 -2.197470 13.455767 -4.138134 -21.637026 -4.426352 0.000000 0.000000 0.000000 -1.597883 -0.467615 5.689130 -2.512462 -0.220273 -7.483095 -2.681497 -18.444539 8.190521 0.000000 0.000000 0.000000 6.731184 0.148971 -11.951874 15.989086 -1.879762 34.210269 -11.340318 -18.068937 -26.899272 0.000000 0.000000 0.000000 18.895774 -9.809101 39.233599 0.000000 0.000000 0.000000 29.059006 -21.148594 -18.680661 -13.897752 6.151346 24.681795 -12.746918 -10.664091 -13.429401 0.000000 0.000000 0.000000 -28.461108 -2.484987 15.956760 11.660567 -2.501707 13.677434 -12.154318 16.449156 -73.707619 
-0.017328 0.922104 -0.003385 -9.809152 -36.820006 6.775167 0.000000 0.000000 0.000000 9.343650 -1.316288 -8.548228 12.242399 -2.132623 12.905801 -3.567203 -20.145526 -4.900108 0.000000 0.000000 0.000000 -2.068605 -0.214675 3.945089 -0.895820 -0.229558 -5.475301 -2.395987 -16.761470 7.044104 0.000000 0.000000 0.000000 7.260213 0.098215 -11.933943 18.381820 -2.550450 32.419815 -13.628957 -20.573270 -24.740601 0.000000 0.000000 0.000000 19.961915 -9.639377 39.220451 0.000000 0.000000 0.000000 29.941634 -22.371964 -20.824405 -14.075327 6.314235 24.977102 -13.163726 -10.899362 -13.406867 0.000000 0.000000 0.000000 -28.305268 -5.768636 19.754278 13.226519 -3.248153 15.952860 -10.774245 19.547571 -74.974382 
-0.019739 0.921261 -0.005956 -10.493957 -38.407514 7.480589 0.000000 0.000000 0.000000 9.991750 -1.075912 -7.490152 12.258336 -2.069484 12.115286 -3.243577 -19.109169 -5.122789 0.000000 0.000000 0.000000 -3.026344 0.166761 1.482284 1.444150 -0.254976 -2.272099 -2.739855 -15.945931 5.703553 0.000000 0.000000 0.000000 7.569021 -0.004071 -11.516002 20.321669 -3.028296 30.355217 -15.521669 -22.519865 -22.902147 0.000000 0.000000 0.000000 20.856593 -9.478089 38.883743 0.000000 0.000000 0.000000 30.914981 -23.258570 -22.667496 -14.559757 6.539527 25.239143 -13.355506 -11.323165 -14.182462 0.000000 0.000000 0.000000 -27.609281 -9.019552 22.925919 15.253318 -3.585943 16.306510 -10.194219 20.433428 -75.011164 
